<svg xmlns="http://www.w3.org/2000/svg" width="128" height="39" fill="none"><path fill="#030000" d="M2.65 11.95A8.65 8.65 0 0 1 9.4 8.92c2.57 0 4.7 1.03 6.3 3.05V1.32h6.78v29.43H15.7v-2.48a8.2 8.2 0 0 1-6.3 3.03 8.7 8.7 0 0 1-6.75-2.98C.88 26.32 0 23.6 0 20.07c0-3.4.88-6.12 2.65-8.12Zm108.47-2.93 4.88 13.5 4.8-13.5h7.2l-9.63 24.35c-.8 2.08-1.92 3.53-3.4 4.33-1.47.8-3.34 1.22-5.6 1.27-1.17 0-2.15-.12-2.9-.35l.98-6.05c.47.25 1.02.4 1.67.4 1.6 0 2.58-.4 2.9-1.17l.5-1.18-2.24-5.7c.02-.22.05-.47.05-.7 0-1.9-.86-3.65-2.2-4.75L104 9.02h7.13Zm-79.95 8.25h8.78a3.93 3.93 0 0 0-1.23-2.32c-.7-.68-1.77-1-3.2-1-1.35 0-2.37.32-3.07.97a3.74 3.74 0 0 0-1.28 2.35ZM72.07.9h6.78v18.35a8.2 8.2 0 0 0-2.13 5.22c0 1.95.73 3.7 2.13 4.9v.95h-6.77V.9ZM6.94 19.65c0 1.55.45 2.82 1.32 3.77.88.95 2 1.43 3.35 1.43.72 0 1.5-.18 2.28-.55a4.8 4.8 0 0 0 1.82-1.4v-6.53a5.45 5.45 0 0 0-4.07-1.9c-1.38 0-2.5.48-3.38 1.4a5.35 5.35 0 0 0-1.33 3.78Zm47.8 3.25c.42.55 1 1.02 1.8 1.4.77.37 1.52.55 2.24.55 1.35 0 2.48-.48 3.35-1.4.9-.95 1.33-2.2 1.33-3.8 0-1.58-.45-2.83-1.33-3.75-.87-.93-2-1.4-3.37-1.4-.73 0-1.48.17-2.25.55a4.7 4.7 0 0 0-1.8 1.4l.02 6.45Zm-30.5-3.28A10.9 10.9 0 0 1 35.5 8.45c3.2 0 5.83 1.07 7.85 3.25 2.02 2.15 3.05 5.05 3.05 8.62v1.55H31.25A4.35 4.35 0 0 0 33 24.4a6 6 0 0 0 3.58.97c.82 0 1.75-.17 2.77-.5a6.73 6.73 0 0 0 2.42-1.3l2.98 4.45a10.8 10.8 0 0 1-3.95 2.1c-1.6.5-3.25.73-4.97.73-3.35 0-6.13-1.03-8.33-3.08-2.18-2.02-3.27-4.75-3.27-8.15Zm23.72 18.83V9.02h6.77v2.48c1.66-2 3.76-3 6.3-3.03 2.78 0 5.03.98 6.76 2.95 1.72 1.98 2.6 4.7 2.6 8.2 0 3.53-.88 6.28-2.6 8.25a8.56 8.56 0 0 1-6.76 2.95c-2.5 0-4.6-1.02-6.3-3.05v10.65l-6.77.03Z"/><path fill="#9BC75D" d="m82.45 17.5.3-.1.1-.3a10 10 0 0 1 9.4-7 9.88 9.88 0 0 1 8.45 4.9l.13.22.22.08c1.58.5 2.95 1.6 3.8 3.1l.15.25.28.07c2.4.6 4.12 2.88 4.12 5.5 0 3.18-2.63 6.1-5.55 6.1H95.7v-5.85h2.95c.55 0 .8-.4.55-.9 0 0-5.17-7.77-6.1-7.77-.92 0-6.1 7.77-6.1 7.77-.25.5-.03.9.55.9h2.9v5.85h-2.33l-5.67.03a5.8 5.8 0 0 1-4.73-5.9c-.05-3.15 2.4-6.1 4.73-6.95Z"/></svg>